<?xml version="1.0" encoding="utf-8"?><svg viewBox="0 0 33 25" xmlns="http://www.w3.org/2000/svg" xmlns:xlink="http://www.w3.org/1999/xlink"><style>:root>svg{display:none}:root>svg:target{display:block}</style><svg fill="none" viewBox="0 0 15 5" id="arrow-right" xmlns="http://www.w3.org/2000/svg"><path fill-rule="evenodd" clip-rule="evenodd" d="M15 2.5a.252.252 0 01-.103.196.403.403 0 01-.248.082H1.199l2.209 1.747a.253.253 0 01.103.197.253.253 0 01-.103.197.403.403 0 01-.249.081.403.403 0 01-.248-.081L.103 2.697a.284.284 0 01-.076-.09.229.229 0 010-.213.284.284 0 01.076-.09L2.911.08A.403.403 0 013.159 0c.094 0 .183.03.249.081a.253.253 0 01.103.197.253.253 0 01-.103.197l-2.21 1.747H14.65c.093 0 .182.03.248.082A.252.252 0 0115 2.5z" fill="#fff"/></svg><svg viewBox="0 0 15 14" id="dislike" xmlns="http://www.w3.org/2000/svg"><path d="M13.263 0h-.737v9.579h.737a1.474 1.474 0 001.474-1.474V1.474A1.474 1.474 0 0013.263 0zM1.473 9.579h5.159l-.827 2.481A1.474 1.474 0 007.203 14h.165l3.684-4.007V0H2.947l-2.9 6.373L0 6.589v1.516A1.474 1.474 0 001.474 9.58z"/></svg><svg viewBox="0 0 15 12" id="email" xmlns="http://www.w3.org/2000/svg"><path d="M0 4.215v4.223a2.812 2.812 0 002.813 2.812h9.374A2.812 2.812 0 0015 8.437V4.215L7.884 7.418a.937.937 0 01-.768 0L0 4.215zM.07 2.19L7.5 5.535l7.43-3.345A2.812 2.812 0 0012.189 0H2.812A2.813 2.813 0 00.07 2.19z"/></svg><svg fill="none" viewBox="0 0 13 10" id="eye" xmlns="http://www.w3.org/2000/svg"><path d="M4.77 5c0 .456.176.893.49 1.215.313.322.737.503 1.18.503.443 0 .868-.181 1.181-.503.313-.322.49-.76.49-1.215 0-.456-.177-.893-.49-1.215a1.647 1.647 0 00-1.18-.503c-.444 0-.868.181-1.181.503-.314.322-.49.76-.49 1.215zm8.144-.396C11.5 1.541 9.364 0 6.5 0 3.634 0 1.5 1.541.086 4.606a.947.947 0 000 .79C1.5 8.459 3.636 10 6.5 10c2.866 0 5-1.541 6.414-4.606a.949.949 0 000-.79zM6.44 7.7C4.991 7.7 3.816 6.491 3.816 5c0-1.49 1.175-2.7 2.624-2.7 1.45 0 2.624 1.21 2.624 2.7 0 1.49-1.174 2.7-2.624 2.7z" fill="#91B4C1"/></svg><svg viewBox="0 0 24 24" id="fb" xmlns="http://www.w3.org/2000/svg"><path fill-rule="evenodd" clip-rule="evenodd" d="M13.423 20v-7.298h2.464l.369-2.845h-2.832V8.042c0-.824.23-1.385 1.417-1.385h1.515V4.111a20.255 20.255 0 00-2.208-.11c-2.183 0-3.678 1.325-3.678 3.76v2.096H8v2.845h2.47V20h2.953z"/></svg><svg viewBox="0 0 16 14" id="like" xmlns="http://www.w3.org/2000/svg"><path d="M8.184 2.152C5.478-1.937 0 .29 0 4.744 0 8.088 7.51 13.32 8.184 14 8.864 13.32 16 8.088 16 4.744c0-4.42-5.104-6.68-7.816-2.592z"/></svg><svg viewBox="0 0 24 24" id="ok" xmlns="http://www.w3.org/2000/svg"><path fill-rule="evenodd" clip-rule="evenodd" d="M11.674 6.536a1.69 1.69 0 00-1.688 1.688 1.69 1.69 0 002.88 1.192 1.69 1.69 0 00.496-1.192 1.69 1.69 0 00-1.688-1.688zm0 5.763a4.08 4.08 0 01-4.076-4.075 4.08 4.08 0 014.076-4.077 4.08 4.08 0 014.077 4.077 4.08 4.08 0 01-4.077 4.075zm-1.649 3.325a7.633 7.633 0 01-2.367-.98 1.195 1.195 0 011.272-2.022 5.175 5.175 0 005.489 0 1.194 1.194 0 111.272 2.022 7.65 7.65 0 01-2.367.98l2.279 2.28a1.192 1.192 0 01-.389 1.948 1.193 1.193 0 01-1.301-.26l-2.238-2.24-2.24 2.24a1.195 1.195 0 01-1.689-1.689l2.279-2.279z"/></svg><svg viewBox="0 0 33 25" id="quote" xmlns="http://www.w3.org/2000/svg"><path d="M23.805 24.785c-1.42 0-2.69-.43-3.809-1.289a6.212 6.212 0 01-2.226-3.34c-.26-.95-.391-1.953-.391-3.008 0-1.601.312-3.222.937-4.863a18.873 18.873 0 012.579-4.668 27.209 27.209 0 013.789-4.082 29.285 29.285 0 014.648-3.36l2.832 2.833c-2.943 2.357-4.954 4.18-6.035 5.469-1.068 1.289-1.621 2.571-1.66 3.847 1.588.183 2.916.866 3.984 2.051s1.602 2.572 1.602 4.16c0 1.732-.612 3.21-1.836 4.434-1.211 1.21-2.683 1.816-4.414 1.816zm-17.188 0c-1.42 0-2.689-.43-3.808-1.289a6.212 6.212 0 01-2.227-3.34c-.26-.95-.39-1.953-.39-3.008 0-1.601.312-3.222.937-4.863a18.872 18.872 0 012.578-4.668 27.207 27.207 0 013.79-4.082 29.286 29.286 0 014.648-3.36l2.832 2.833c-2.943 2.357-4.955 4.18-6.036 5.469-1.067 1.289-1.62 2.571-1.66 3.847 1.589.183 2.917.866 3.985 2.051 1.067 1.185 1.601 2.572 1.601 4.16 0 1.732-.612 3.21-1.836 4.434-1.21 1.21-2.682 1.816-4.414 1.816z" fill-opacity=".5"/></svg><svg fill="none" viewBox="0 0 21 21" id="radio" xmlns="http://www.w3.org/2000/svg"><circle cx="10.5" cy="10.5" r="10" fill="#fff" stroke="#7798A5"/></svg><svg viewBox="0 0 24 24" id="search" xmlns="http://www.w3.org/2000/svg"><path d="M10.264 20.526c2.277 0 4.488-.763 6.282-2.166l5.64 5.64L24 22.186l-5.64-5.64a10.202 10.202 0 002.167-6.283C20.527 4.604 15.923 0 10.263 0 4.605 0 0 4.604 0 10.263s4.604 10.263 10.264 10.263zm0-17.96c4.245 0 7.697 3.452 7.697 7.697s-3.452 7.697-7.697 7.697c-4.246 0-7.698-3.452-7.698-7.697s3.452-7.697 7.698-7.697z"/></svg><svg viewBox="0 0 15 13" id="tg" xmlns="http://www.w3.org/2000/svg"><path fill-rule="evenodd" clip-rule="evenodd" d="M13.987.086L.7 5.381c-.906.376-.902.9-.165 1.132l3.313 1.07 1.269 4.016c.154.44.078.614.525.614.345 0 .497-.163.69-.357l1.656-1.665 3.447 2.632c.634.361 1.093.174 1.25-.608l2.263-11.019c.232-.959-.354-1.395-.96-1.11zM4.37 7.336l7.469-4.869c.373-.234.715-.108.434.15L5.876 8.578l-.248 2.744-1.26-3.987z"/></svg><svg viewBox="0 0 24 24" id="twitter" xmlns="http://www.w3.org/2000/svg"><path fill-rule="evenodd" clip-rule="evenodd" d="M20 7.54a6.56 6.56 0 01-1.885.516 3.294 3.294 0 001.443-1.816 6.575 6.575 0 01-2.085.796 3.283 3.283 0 00-5.593 2.994A9.32 9.32 0 015.114 6.6a3.28 3.28 0 001.016 4.382 3.273 3.273 0 01-1.487-.41v.041a3.285 3.285 0 002.633 3.218c-.483.13-.99.15-1.482.056a3.286 3.286 0 003.066 2.28A6.584 6.584 0 014 17.524 9.29 9.29 0 009.032 19c6.038 0 9.34-5 9.34-9.337 0-.143-.004-.285-.01-.425A6.672 6.672 0 0020 7.538v.001z"/></svg><svg viewBox="0 0 13 14" id="user" xmlns="http://www.w3.org/2000/svg"><path d="M3.25 3.316c0 1.828 1.458 3.316 3.25 3.316s3.25-1.488 3.25-3.316C9.75 1.488 8.292 0 6.5 0S3.25 1.488 3.25 3.316zM12.278 14H13v-.737c0-2.843-2.268-5.158-5.056-5.158H5.056C2.268 8.105 0 10.42 0 13.263V14h12.278z"/></svg><svg viewBox="0 0 20 20" id="viber" xmlns="http://www.w3.org/2000/svg"><path fill-rule="evenodd" clip-rule="evenodd" d="M15.362 12.979c-.404-.326-.835-.62-1.26-.919-.846-.598-1.62-.644-2.252.317-.355.54-.85.564-1.37.327-1.432-.652-2.537-1.658-3.184-3.12-.287-.647-.284-1.227.387-1.685.354-.241.712-.528.684-1.056-.038-.69-1.703-2.994-2.36-3.238a1.19 1.19 0 00-.82 0c-1.543.52-2.182 1.795-1.57 3.305 1.825 4.504 5.035 7.64 9.457 9.553.252.108.532.152.674.191 1.006.01 2.185-.965 2.526-1.931.328-.931-.365-1.3-.913-1.744zm-4.958-8.912c3.233.5 4.723 2.045 5.135 5.317.038.302-.075.757.355.765.449.009.34-.44.344-.741.038-3.083-2.636-5.94-5.74-6.044-.234.033-.719-.163-.75.365-.02.355.389.297.656.338z"/><path fill-rule="evenodd" clip-rule="evenodd" d="M11.037 4.964c-.311-.037-.721-.185-.795.25-.075.454.382.408.676.474 1.996.449 2.692 1.179 3.02 3.169.048.29-.047.741.444.666.363-.055.231-.441.262-.668.017-1.91-1.613-3.65-3.607-3.89z"/><path fill-rule="evenodd" clip-rule="evenodd" d="M11.22 6.527c-.208.005-.41.027-.488.25-.114.333.127.413.372.453.82.132 1.25.617 1.332 1.438.022.223.162.403.377.378.296-.036.324-.301.314-.553.015-.922-1.022-1.988-1.907-1.966z"/></svg><svg viewBox="0 0 24 24" id="vk" xmlns="http://www.w3.org/2000/svg"><path fill-rule="evenodd" clip-rule="evenodd" d="M19.623 7.66c.12-.372 0-.643-.525-.643h-1.745c-.44 0-.644.237-.763.491 0 0-.898 2.17-2.152 3.576-.406.406-.593.542-.813.542-.119 0-.271-.136-.271-.508V7.644c0-.44-.136-.644-.509-.644H10.1c-.27 0-.44.203-.44.407 0 .423.627.525.694 1.711v2.576c0 .559-.101.66-.322.66-.593 0-2.033-2.185-2.897-4.676-.17-.492-.339-.678-.78-.678H4.593C4.085 7 4 7.237 4 7.491c0 .458.593 2.762 2.762 5.813 1.44 2.084 3.49 3.202 5.338 3.202 1.118 0 1.254-.254 1.254-.678v-1.575c0-.509.101-.594.457-.594.254 0 .712.136 1.746 1.136 1.186 1.186 1.39 1.728 2.05 1.728h1.745c.509 0 .746-.254.61-.745-.152-.492-.728-1.203-1.474-2.05-.407-.475-1.017-1-1.203-1.255-.254-.339-.186-.474 0-.78-.017 0 2.118-3.015 2.338-4.032"/></svg><svg viewBox="0 0 24 24" id="watsup" xmlns="http://www.w3.org/2000/svg"><path fill-rule="evenodd" clip-rule="evenodd" d="M20 11.794c0 4.304-3.517 7.794-7.855 7.794a7.87 7.87 0 01-3.796-.97L4 20l1.418-4.182a7.714 7.714 0 01-1.127-4.024C4.29 7.489 7.807 4 12.145 4S20 7.49 20 11.794zm-7.855-6.553c-3.641 0-6.603 2.94-6.603 6.553A6.48 6.48 0 006.8 15.636l-.825 2.433 2.537-.806a6.6 6.6 0 003.633 1.084c3.642 0 6.604-2.94 6.604-6.553s-2.962-6.553-6.604-6.553zm3.967 8.348c-.049-.08-.177-.128-.37-.223-.192-.095-1.139-.558-1.315-.621-.177-.064-.305-.096-.434.095-.192.258-.396.508-.61.749-.112.128-.224.143-.416.048-.193-.096-.813-.297-1.549-.948a5.76 5.76 0 01-1.07-1.323c-.113-.191-.013-.295.084-.39.086-.086.192-.223.289-.334.096-.112.128-.191.192-.319s.032-.239-.016-.335c-.048-.095-.433-1.035-.594-1.418-.16-.382-.32-.318-.433-.318-.112 0-.24-.016-.369-.016a.71.71 0 00-.513.239c-.177.19-.674.653-.674 1.593s.69 1.848.786 1.976c.096.127 1.332 2.119 3.289 2.884 1.958.764 1.958.51 2.31.477.353-.031 1.14-.461 1.3-.908.16-.446.16-.829.113-.908z"/></svg></svg>