<svg width="24" height="24" fill="none" xmlns="http://www.w3.org/2000/svg"><path fill-rule="evenodd" clip-rule="evenodd" d="M11.674 6.536a1.69 1.69 0 00-1.688 1.688 1.69 1.69 0 002.88 1.192 1.69 1.69 0 00.496-1.192 1.69 1.69 0 00-1.688-1.688zm0 5.763a4.08 4.08 0 01-4.076-4.075 4.08 4.08 0 014.076-4.077 4.08 4.08 0 014.077 4.077 4.08 4.08 0 01-4.077 4.075zm-1.649 3.325a7.633 7.633 0 01-2.367-.98 1.195 1.195 0 011.272-2.022 5.175 5.175 0 005.489 0 1.194 1.194 0 111.272 2.022 7.65 7.65 0 01-2.367.98l2.279 2.28a1.192 1.192 0 01-.389 1.948 1.193 1.193 0 01-1.301-.26l-2.238-2.24-2.24 2.24a1.195 1.195 0 01-1.689-1.689l2.279-2.279z" fill="#90B1BD"/></svg>