<svg width="33" height="25" fill="none" xmlns="http://www.w3.org/2000/svg"><path d="M23.805 24.785c-1.42 0-2.69-.43-3.809-1.289a6.212 6.212 0 01-2.226-3.34 11.35 11.35 0 01-.391-3.008c0-1.601.312-3.222.937-4.863a18.873 18.873 0 012.579-4.668 27.209 27.209 0 013.789-4.082 29.285 29.285 0 014.648-3.36l2.832 2.833c-2.943 2.357-4.954 4.18-6.035 5.469-1.068 1.289-1.621 2.571-1.66 3.847 1.588.183 2.916.866 3.984 2.051s1.602 2.572 1.602 4.16c0 1.732-.612 3.21-1.836 4.434-1.211 1.21-2.683 1.816-4.414 1.816zm-17.188 0a6.09 6.09 0 01-3.808-1.289 6.212 6.212 0 01-2.227-3.34 11.35 11.35 0 01-.39-3.008c0-1.601.312-3.222.937-4.863a18.872 18.872 0 012.578-4.668 27.207 27.207 0 013.79-4.082 29.286 29.286 0 014.648-3.36l2.832 2.833c-2.943 2.357-4.955 4.18-6.036 5.469-1.067 1.289-1.62 2.571-1.66 3.847 1.589.183 2.917.866 3.985 2.051 1.067 1.185 1.601 2.572 1.601 4.16 0 1.732-.612 3.21-1.836 4.434-1.21 1.21-2.682 1.816-4.414 1.816z" fill="#91B4C1" fill-opacity=".5"/></svg>