<svg width="20" height="20" fill="none" xmlns="http://www.w3.org/2000/svg"><path fill-rule="evenodd" clip-rule="evenodd" d="M15.362 12.979c-.404-.326-.835-.62-1.26-.919-.846-.598-1.62-.644-2.252.317-.355.54-.85.564-1.37.327-1.432-.652-2.537-1.658-3.184-3.12-.287-.647-.284-1.227.387-1.685.354-.241.712-.528.684-1.056-.038-.69-1.703-2.994-2.36-3.238a1.19 1.19 0 00-.82 0c-1.543.52-2.182 1.795-1.57 3.305 1.825 4.504 5.035 7.64 9.457 9.553.252.108.532.152.674.191 1.006.01 2.185-.965 2.526-1.931.328-.931-.365-1.3-.913-1.744zm-4.958-8.912c3.233.5 4.723 2.045 5.135 5.317.038.302-.075.757.355.765.449.009.34-.44.344-.741.038-3.083-2.636-5.94-5.74-6.044-.234.033-.719-.163-.75.365-.02.355.389.297.656.338z" fill="#90B1BD"/><path fill-rule="evenodd" clip-rule="evenodd" d="M11.037 4.964c-.311-.037-.721-.185-.795.25-.075.454.382.408.676.474 1.996.449 2.692 1.179 3.02 3.169.048.29-.047.741.444.666.363-.055.231-.441.262-.668.017-1.91-1.613-3.65-3.607-3.89z" fill="#90B1BD"/><path fill-rule="evenodd" clip-rule="evenodd" d="M11.22 6.527c-.208.005-.41.027-.488.25-.114.333.127.413.372.453.82.132 1.25.617 1.332 1.438.022.223.162.403.377.378.296-.036.324-.301.314-.553.015-.922-1.022-1.988-1.907-1.966z" fill="#90B1BD"/></svg>