<svg width="17" height="17" fill="none" xmlns="http://www.w3.org/2000/svg"><circle cx="8.5" cy="8.5" r="8" stroke="#2AB4CC"/><path d="M9.303 6.909V14H8.057V6.909h1.246zm.266-2.226a.785.785 0 01-.077.343.95.95 0 01-.196.28.878.878 0 01-.287.189.85.85 0 01-.343.07.85.85 0 01-.616-.259 1.021 1.021 0 01-.189-.28.85.85 0 01-.07-.343.85.85 0 01.07-.343.878.878 0 01.189-.287c.08-.084.17-.15.273-.196a.85.85 0 01.343-.07.85.85 0 01.343.07.827.827 0 01.287.196c.084.08.15.175.196.287a.785.785 0 01.077.343z" fill="#2AB4CC"/></svg>