<svg width="13" height="10" fill="none" xmlns="http://www.w3.org/2000/svg"><path d="M4.77 5c0 .456.176.893.49 1.215.313.322.737.503 1.18.503.443 0 .868-.181 1.181-.503.313-.322.49-.76.49-1.215 0-.456-.177-.893-.49-1.215a1.647 1.647 0 00-1.18-.503c-.444 0-.868.181-1.181.503-.314.322-.49.76-.49 1.215zm8.144-.396C11.5 1.541 9.364 0 6.5 0 3.634 0 1.5 1.541.086 4.606a.947.947 0 000 .79C1.5 8.459 3.636 10 6.5 10c2.866 0 5-1.541 6.414-4.606a.949.949 0 000-.79zM6.44 7.7C4.991 7.7 3.816 6.491 3.816 5c0-1.49 1.175-2.7 2.624-2.7 1.45 0 2.624 1.21 2.624 2.7 0 1.49-1.174 2.7-2.624 2.7z" fill="#91B4C1"/></svg>