<svg width="12" height="16" fill="none" xmlns="http://www.w3.org/2000/svg"><path d="M11.49 7.24a6.214 6.214 0 00-1.413-2.06l-.496-.477a.136.136 0 00-.126-.032.136.136 0 00-.058.033.145.145 0 00-.037.058l-.222.667c-.138.419-.392.846-.752 1.266a.104.104 0 01-.07.036.091.091 0 01-.073-.027.108.108 0 01-.034-.085c.063-1.077-.244-2.291-.915-3.613C6.738 1.908 5.966 1.052 5 .454L4.297.02c-.092-.058-.21.018-.204.13l.037.859c.026.586-.04 1.105-.192 1.536a5.166 5.166 0 01-1.611 2.282 6.25 6.25 0 00-1.71 2.172A6.47 6.47 0 000 9.76c0 .844.159 1.661.472 2.432a6.27 6.27 0 001.287 1.983 5.978 5.978 0 001.907 1.336c.74.325 1.524.49 2.334.49s1.594-.165 2.334-.488a5.931 5.931 0 001.907-1.336 6.211 6.211 0 001.287-1.983A6.418 6.418 0 0012 9.76c0-.873-.17-1.72-.51-2.52z" fill="#FF7171"/></svg>