<svg width="17" height="17" fill="none" xmlns="http://www.w3.org/2000/svg"><path d="M5.208 13.82l.26.131a6.812 6.812 0 003.521.956c3.825 0 6.954-3.13 6.954-6.954a6.98 6.98 0 00-2.043-4.91A6.904 6.904 0 008.99 1a6.92 6.92 0 00-6.91 6.997c0 1.304.39 2.564 1.043 3.65l.173.261-.695 2.565 2.608-.652z" fill="#45BD82"/><path d="M14.64 2.347A7.832 7.832 0 009.032 0C4.6 0 1.036 3.607 1.079 7.997c0 1.39.391 2.738 1.043 3.955L.992 16.08l4.216-1.087a7.76 7.76 0 003.781.956c4.39 0 7.954-3.607 7.954-7.996 0-2.13-.826-4.13-2.304-5.607zM9.032 14.603c-1.174 0-2.347-.304-3.347-.912l-.26-.131-2.521.652.651-2.477-.173-.261c-1.913-3.086-1-7.171 2.13-9.084 3.128-1.912 7.17-1 9.083 2.13 1.912 3.13 1 7.171-2.13 9.084-1 .651-2.216.999-3.433.999zm3.824-4.824l-.478-.217s-.695-.305-1.13-.522c-.043 0-.087-.043-.13-.043a.62.62 0 00-.304.087s-.044.043-.652.738a.24.24 0 01-.218.13h-.043a.33.33 0 01-.174-.086l-.217-.087c-.478-.217-.913-.478-1.26-.826-.088-.087-.218-.174-.305-.26-.304-.305-.608-.653-.826-1.044l-.043-.087c-.044-.043-.044-.087-.087-.173 0-.087 0-.174.043-.218 0 0 .174-.217.305-.347.087-.087.13-.218.217-.305.087-.13.13-.304.087-.434-.044-.218-.565-1.391-.696-1.652a.503.503 0 00-.304-.217h-.478c-.087 0-.174.043-.26.043l-.044.044c-.087.043-.174.13-.26.174-.088.087-.131.173-.218.26-.304.392-.478.87-.478 1.348 0 .347.087.695.217 1l.044.13A7.24 7.24 0 006.773 9.43l.173.174c.13.13.261.217.348.348a7.766 7.766 0 003.13 1.651c.13.044.304.044.434.087h.434c.218 0 .479-.087.652-.174.13-.086.218-.086.305-.173l.087-.087c.087-.087.173-.13.26-.218.087-.087.174-.173.218-.26.087-.174.13-.392.174-.609v-.304s-.044-.044-.13-.087z" fill="#fff"/></svg>