<svg width="20" height="20" fill="none" xmlns="http://www.w3.org/2000/svg"><path d="M10 0C4.478 0 0 4.478 0 10s4.478 10 10 10 10-4.478 10-10S15.522 0 10 0zm.498 14.848l.004.708a.18.18 0 01-.178.18H9.69a.18.18 0 01-.179-.178v-.7c-1.982-.148-2.915-1.278-3.015-2.505a.179.179 0 01.178-.194h1.031c.087 0 .163.062.177.147.114.707.665 1.236 1.654 1.368V10.49l-.552-.14c-1.167-.28-2.279-1.007-2.279-2.516 0-1.628 1.237-2.503 2.817-2.657V4.44a.18.18 0 01.179-.179h.627a.18.18 0 01.179.179v.73c1.529.154 2.676 1.047 2.81 2.437a.178.178 0 01-.179.197h-1.002a.178.178 0 01-.176-.154c-.09-.652-.612-1.183-1.462-1.3v2.998l.567.132c1.446.357 2.43 1.049 2.43 2.598 0 1.68-1.25 2.618-2.997 2.77zM8.094 7.73c0 .567.35 1.007 1.105 1.279.105.042.21.076.334.112V6.353c-.823.105-1.44.567-1.44 1.377zm2.6 3.018a3.143 3.143 0 01-.196-.05v2.985c.95-.085 1.607-.607 1.607-1.482 0-.685-.355-1.132-1.41-1.453z" fill="#fff"/></svg>