<svg width="26" height="25" fill="none" xmlns="http://www.w3.org/2000/svg"><path d="M9.513.038H8.71v2.964h.802V.038zM2.862 2.793l2.096 2.096.566-.567-2.096-2.096-.566.567zm9.838 1.53l.566.566 2.096-2.096-.566-.566-2.097 2.096zM3.637 8.478H.673v.8h2.964v-.8z" fill="#fff"/><path d="M25.379 13.133a3.536 3.536 0 00-3.532-3.532c-.223 0-.45.023-.676.068a9.033 9.033 0 00-7.791-3.23 4.922 4.922 0 00-4.268-2.48A4.928 4.928 0 004.19 8.826h-.003l.001.025-.001.032h.003a4.915 4.915 0 001.484 3.462c-.033.09-.07.175-.1.265a4.962 4.962 0 00-4.721 4.95 4.961 4.961 0 004.955 4.956c.728 0 1.45-.162 2.105-.47a9.012 9.012 0 006.278 2.522 9.07 9.07 0 008.51-5.901 2.44 2.44 0 002.678-2.423c0-.5-.157-.983-.445-1.393.29-.524.444-1.113.444-1.718zM4.989 8.851a4.127 4.127 0 014.122-4.092 4.12 4.12 0 013.406 1.803 9.165 9.165 0 00-6.5 4.978A4.105 4.105 0 014.99 8.85z" fill="#fff"/></svg>